<svg viewBox="0 0 17 2" xmlns="http://www.w3.org/2000/svg">
<path d="M 2.0,1.0 L 1.3090169943749475,1.9510565162951536 M 1.3090169943749475,1.9510565162951536 L 0.19098300562505266,1.5877852522924734 M 0.19098300562505266,1.5877852522924734 L 0.19098300562505255,0.412214747707527 M 0.19098300562505255,0.412214747707527 L 1.3090169943749472,0.04894348370484636 M 1.3090169943749472,0.04894348370484636 L 2.0,0.9999999999999998 M 2.0,0.9999999999999998 " stroke="black" stroke-width="0.02" /><path d="M 5.0,1.0 L 4.707106781186548,1.7071067811865475 M 4.707106781186548,1.7071067811865475 L 4.0,2.0 M 4.0,2.0 L 3.2928932188134525,1.7071067811865475 M 3.2928932188134525,1.7071067811865475 L 3.0,1.0000000000000002 M 3.0,1.0000000000000002 L 3.292893218813452,0.29289321881345254 M 3.292893218813452,0.29289321881345254 L 4.0,0.0 M 4.0,0.0 L 4.707106781186547,0.2928932188134523 M 4.707106781186547,0.2928932188134523 L 5.0,0.9999999999999998 M 5.0,0.9999999999999998 " stroke="black" stroke-width="0.02" /><path d="M 8.0,1.0 L 7.8090169943749475,1.5877852522924731 M 7.8090169943749475,1.5877852522924731 L 7.3090169943749475,1.9510565162951536 M 7.3090169943749475,1.9510565162951536 L 6.6909830056250525,1.9510565162951536 M 6.6909830056250525,1.9510565162951536 L 6.1909830056250525,1.5877852522924734 M 6.1909830056250525,1.5877852522924734 L 6.0,1.0000000000000002 M 6.0,1.0000000000000002 L 6.1909830056250525,0.412214747707527 M 6.1909830056250525,0.412214747707527 L 6.6909830056250525,0.04894348370484647 M 6.6909830056250525,0.04894348370484647 L 7.3090169943749475,0.04894348370484636 M 7.3090169943749475,0.04894348370484636 L 7.8090169943749475,0.41221474770752664 M 7.8090169943749475,0.41221474770752664 L 8.0,0.9999999999999998 M 8.0,0.9999999999999998 " stroke="black" stroke-width="0.02" /><path d="M 11.0,1.0 L 10.9135454576426,1.4067366430758002 M 10.9135454576426,1.4067366430758002 L 10.66913060635886,1.743144825477394 M 10.66913060635886,1.743144825477394 L 10.309016994374947,1.9510565162951536 M 10.309016994374947,1.9510565162951536 L 9.895471536732346,1.9945218953682735 M 9.895471536732346,1.9945218953682735 L 9.5,1.8660254037844388 M 9.5,1.8660254037844388 L 9.190983005625053,1.5877852522924734 M 9.190983005625053,1.5877852522924734 L 9.021852399266194,1.2079116908177596 M 9.021852399266194,1.2079116908177596 L 9.021852399266194,0.7920883091822409 M 9.021852399266194,0.7920883091822409 L 9.190983005625053,0.412214747707527 M 9.190983005625053,0.412214747707527 L 9.5,0.13397459621556151 M 9.5,0.13397459621556151 L 9.895471536732346,0.00547810463172671 M 9.895471536732346,0.00547810463172671 L 10.309016994374947,0.04894348370484636 M 10.309016994374947,0.04894348370484636 L 10.669130606358857,0.2568551745226054 M 10.669130606358857,0.2568551745226054 L 10.9135454576426,0.5932633569241991 M 10.9135454576426,0.5932633569241991 L 11.0,0.9999999999999998 M 11.0,0.9999999999999998 " stroke="black" stroke-width="0.02" /><path d="M 14.0,1.0 L 13.939692620785909,1.3420201433256687 M 13.939692620785909,1.3420201433256687 L 13.766044443118979,1.6427876096865393 M 13.766044443118979,1.6427876096865393 L 13.5,1.8660254037844386 M 13.5,1.8660254037844386 L 13.17364817766693,1.9848077530122081 M 13.17364817766693,1.9848077530122081 L 12.82635182233307,1.9848077530122081 M 12.82635182233307,1.9848077530122081 L 12.5,1.8660254037844388 M 12.5,1.8660254037844388 L 12.233955556881021,1.6427876096865395 M 12.233955556881021,1.6427876096865395 L 12.060307379214091,1.3420201433256689 M 12.060307379214091,1.3420201433256689 L 12.0,1.0000000000000002 M 12.0,1.0000000000000002 L 12.060307379214091,0.6579798566743313 M 12.060307379214091,0.6579798566743313 L 12.233955556881021,0.35721239031346075 M 12.233955556881021,0.35721239031346075 L 12.5,0.13397459621556151 M 12.5,0.13397459621556151 L 12.82635182233307,0.01519224698779198 M 12.82635182233307,0.01519224698779198 L 13.17364817766693,0.015192246987791869 M 13.17364817766693,0.015192246987791869 L 13.5,0.1339745962155614 M 13.5,0.1339745962155614 L 13.766044443118977,0.3572123903134604 M 13.766044443118977,0.3572123903134604 L 13.939692620785909,0.6579798566743306 M 13.939692620785909,0.6579798566743306 L 14.0,0.9999999999999998 M 14.0,0.9999999999999998 " stroke="black" stroke-width="0.02" /><path d="M 17.0,1.0 L 16.978147600733806,1.2079116908177594 M 16.978147600733806,1.2079116908177594 L 16.913545457642602,1.4067366430758002 M 16.913545457642602,1.4067366430758002 L 16.809016994374947,1.5877852522924731 M 16.809016994374947,1.5877852522924731 L 16.66913060635886,1.743144825477394 M 16.66913060635886,1.743144825477394 L 16.5,1.8660254037844386 M 16.5,1.8660254037844386 L 16.309016994374947,1.9510565162951536 M 16.309016994374947,1.9510565162951536 L 16.104528463267652,1.9945218953682733 M 16.104528463267652,1.9945218953682733 L 15.895471536732346,1.9945218953682735 M 15.895471536732346,1.9945218953682735 L 15.690983005625053,1.9510565162951536 M 15.690983005625053,1.9510565162951536 L 15.5,1.8660254037844388 M 15.5,1.8660254037844388 L 15.330869393641143,1.7431448254773945 M 15.330869393641143,1.7431448254773945 L 15.190983005625053,1.5877852522924734 M 15.190983005625053,1.5877852522924734 L 15.0864545423574,1.4067366430758004 M 15.0864545423574,1.4067366430758004 L 15.021852399266194,1.2079116908177596 M 15.021852399266194,1.2079116908177596 L 15.0,1.0000000000000002 M 15.0,1.0000000000000002 L 15.021852399266194,0.7920883091822409 M 15.021852399266194,0.7920883091822409 L 15.0864545423574,0.5932633569242002 M 15.0864545423574,0.5932633569242002 L 15.190983005625053,0.412214747707527 M 15.190983005625053,0.412214747707527 L 15.33086939364114,0.256855174522606 M 15.33086939364114,0.256855174522606 L 15.5,0.13397459621556151 M 15.5,0.13397459621556151 L 15.690983005625052,0.04894348370484647 M 15.690983005625052,0.04894348370484647 L 15.895471536732346,0.00547810463172671 M 15.895471536732346,0.00547810463172671 L 16.104528463267652,0.005478104631726599 M 16.104528463267652,0.005478104631726599 L 16.309016994374947,0.04894348370484636 M 16.309016994374947,0.04894348370484636 L 16.5,0.13397459621556096 M 16.5,0.13397459621556096 L 16.66913060635886,0.2568551745226054 M 16.66913060635886,0.2568551745226054 L 16.809016994374947,0.41221474770752664 M 16.809016994374947,0.41221474770752664 L 16.913545457642602,0.5932633569241991 M 16.913545457642602,0.5932633569241991 L 16.978147600733806,0.7920883091822402 M 16.978147600733806,0.7920883091822402 L 17.0,0.9999999999999998 M 17.0,0.9999999999999998 " stroke="black" stroke-width="0.02" /></svg>